<svg version="1.1" id="Layer_1" xmlns="http://www.w3.org/2000/svg" xmlns:xlink="http://www.w3.org/1999/xlink" x="0px" y="0px"
	 width="100%" viewBox="0 0 1024 624" enable-background="new 0 0 1024 624" xml:space="preserve">
<path fill="#000000" opacity="1.000000" stroke="none" 
	d="
M678.356750,48.468765 
	C697.525208,54.380024 715.867798,61.365150 734.017456,68.891785 
	C737.002625,70.129745 738.239441,71.772995 738.422913,75.163315 
	C739.720215,99.138565 739.649597,123.134956 739.256653,147.112076 
	C738.612061,186.447906 735.050537,225.459488 723.001160,263.215363 
	C710.195312,303.341766 688.329102,337.931519 658.606934,367.650299 
	C618.250977,408.001709 569.989685,436.058563 517.874634,458.119568 
	C515.185730,459.257782 512.573181,459.670074 509.683716,458.465942 
	C456.824371,436.438324 407.674561,408.511536 366.897491,367.597168 
	C326.718414,327.282837 302.731506,278.662964 293.511383,222.562607 
	C290.026001,201.355682 288.667938,180.025955 287.428497,158.598511 
	C285.846344,131.245544 288.215393,103.986732 287.655365,76.690681 
	C287.569489,72.505112 289.067932,70.352623 292.775818,68.802444 
	C315.515686,59.295513 338.589996,50.747906 362.286469,43.918461 
	C387.556152,36.635590 413.258759,31.361790 439.301758,27.886820 
	C473.207184,23.362747 507.341431,22.270100 541.441589,23.965601 
	C587.922729,26.276699 633.498596,34.418240 678.356750,48.468765 
M637.880554,360.379059 
	C660.103088,339.574158 678.288208,315.766052 691.849365,288.437775 
	C711.738159,248.358368 718.414246,205.385590 719.558594,161.289352 
	C720.180664,137.317062 719.779785,113.323395 718.706116,89.351456 
	C718.586243,86.674225 717.870117,85.006996 715.221558,84.077026 
	C711.300232,82.700203 707.496643,80.992119 703.614319,79.499565 
	C652.781189,59.956989 600.098755,48.541008 545.802795,45.565018 
	C502.664337,43.200577 459.654053,45.626049 417.006439,53.279995 
	C380.850250,59.768913 345.778992,69.848068 311.773956,83.711845 
	C309.067932,84.815086 307.347900,86.108475 307.299347,89.428696 
	C307.109375,102.411285 306.457428,115.389305 306.396240,128.371002 
	C306.327179,143.019241 306.333191,157.658463 307.076447,172.320160 
	C307.987396,190.290329 309.909515,208.077515 313.397186,225.697876 
	C321.563110,266.953766 338.212860,304.316132 365.415985,336.598541 
	C404.627319,383.131317 455.621796,412.778320 510.342224,436.995758 
	C512.532471,437.965057 514.483643,437.735443 516.567688,436.790344 
	C522.632324,434.040070 528.790466,431.490295 534.806335,428.639282 
	C572.205078,410.915680 606.945862,389.155060 637.880554,360.379059 
z"/>
<path fill="#000000" opacity="1.000000" stroke="none" 
	d="
M166.809753,490.891541 
	C183.007034,497.730499 189.647934,510.348816 190.361084,526.860107 
	C190.725494,535.297180 189.675827,543.455994 186.147568,551.195984 
	C179.536118,565.699768 167.170807,571.628967 152.299576,573.154419 
	C142.212097,574.189270 132.033981,574.256104 121.869949,574.147766 
	C118.143097,574.107971 116.558067,573.095093 116.582878,569.021362 
	C116.738075,543.543091 116.668159,518.063354 116.657799,492.584076 
	C116.656731,489.966309 116.566254,487.476562 120.379501,487.624054 
	C133.000015,488.112061 145.682205,486.540009 158.248825,488.676544 
	C161.017654,489.147308 163.712860,490.051147 166.809753,490.891541 
M169.648102,528.617676 
	C169.167435,515.737732 163.745575,508.178619 152.899475,505.782013 
	C149.187943,504.961853 145.320068,504.859222 141.528824,504.387085 
	C137.649094,503.903900 136.222046,505.496002 136.280014,509.457031 
	C136.462677,521.939636 136.249100,534.427673 136.377579,546.911621 
	C136.486755,557.518433 134.116135,557.010437 146.721939,556.558105 
	C159.021530,556.116760 165.982193,550.704895 168.346375,540.371460 
	C169.156723,536.829529 169.978546,533.225769 169.648102,528.617676 
z"/>
<path fill="#000000" opacity="1.000000" stroke="none" 
	d="
M685.121582,500.191956 
	C699.750305,482.677368 725.924866,480.043976 746.444946,488.396393 
	C747.896545,488.987244 749.239075,489.681335 749.249207,491.489410 
	C749.281494,497.243164 749.261108,502.997223 749.261108,508.667938 
	C745.976440,509.302765 744.105042,507.604340 742.016907,506.764191 
	C732.783081,503.049072 723.434204,501.546112 713.872131,505.326599 
	C701.842163,510.082733 696.036316,521.611816 698.471313,535.579163 
	C700.458496,546.978149 710.331848,555.782043 721.914429,556.729614 
	C729.689636,557.365723 737.180603,556.525879 744.388550,553.442993 
	C745.868042,552.810181 747.433960,552.379395 749.491150,551.673218 
	C750.775208,557.734314 750.111267,563.335938 750.041565,568.893616 
	C750.022705,570.402710 748.822327,571.199097 747.532654,571.708801 
	C727.280640,579.712280 697.621460,578.433350 682.991150,556.933655 
	C672.513916,541.536987 671.019409,517.894226 685.121582,500.191956 
z"/>
<path fill="#000000" opacity="1.000000" stroke="none" 
	d="
M862.305542,548.278137 
	C861.149902,555.303162 862.068420,562.115906 861.947876,568.922546 
	C861.884888,572.481445 860.616760,574.154541 856.951416,574.005066 
	C853.627380,573.869446 850.283081,573.835388 846.965515,574.041931 
	C843.067627,574.284729 841.698364,572.693909 841.742432,568.800781 
	C841.906433,554.316772 841.828186,539.830017 841.828247,525.344299 
	C841.828308,517.685242 841.785828,510.026184 841.800659,502.367188 
	C841.804138,500.572754 841.496826,498.353851 844.259583,498.365265 
	C857.874390,498.421387 871.601135,497.355927 885.049011,499.791260 
	C903.509155,503.134308 906.937988,523.040283 901.144592,535.043579 
	C898.645874,540.220276 893.826721,542.538940 888.265503,545.221375 
	C894.684937,554.507812 900.923950,563.533142 907.962524,573.715210 
	C899.783875,573.715210 893.054382,573.804626 886.330566,573.650146 
	C884.717041,573.613098 884.036804,571.856384 883.293091,570.572266 
	C880.123596,565.099854 876.597656,559.787842 873.957214,554.068604 
	C871.525940,548.802551 868.050598,546.831726 862.305542,548.278137 
M876.153687,532.892334 
	C881.257935,531.498169 883.473145,527.781799 883.413513,522.871643 
	C883.355896,518.125000 879.819824,514.559814 874.411804,513.665405 
	C870.513916,513.020752 866.051636,512.079895 862.707336,514.075317 
	C859.650574,515.899170 862.088074,519.947327 861.968811,522.977905 
	C861.499023,534.914185 861.611023,534.919861 874.428772,533.450806 
	C874.753601,533.413635 875.066162,533.269165 876.153687,532.892334 
z"/>
<path fill="#000000" opacity="1.000000" stroke="none" 
	d="
M595.811279,574.098083 
	C581.669006,573.982239 581.670044,573.982239 581.671997,560.382507 
	C581.672546,556.383118 581.568420,552.380676 581.693970,548.385376 
	C581.783691,545.530762 580.844788,543.973511 577.757263,543.998108 
	C571.259460,544.049805 564.760681,544.011780 558.262512,543.966675 
	C555.215942,543.945496 554.260376,545.535522 554.300415,548.387146 
	C554.396362,555.218018 554.192566,562.054626 554.369751,568.882202 
	C554.460449,572.377747 553.491516,574.077454 549.647217,574.037415 
	C531.342468,573.847046 535.099915,576.285217 534.888672,560.012695 
	C534.646545,541.352051 534.977234,522.683777 534.716003,504.023560 
	C534.646912,499.092346 536.333862,497.758636 541.050476,497.823273 
	C554.307312,498.004913 554.309143,497.829773 554.317322,510.906403 
	C554.319641,514.572510 554.456360,518.244507 554.291992,521.903076 
	C554.141174,525.258057 555.321472,526.794800 558.871887,526.696716 
	C565.032837,526.526428 571.204529,526.547180 577.366699,526.695496 
	C580.672607,526.775085 581.762207,525.337708 581.702148,522.198059 
	C581.577881,515.701416 581.771667,509.198395 581.624268,502.702728 
	C581.548340,499.357635 582.648560,497.742371 586.209412,497.935364 
	C589.531311,498.115356 592.883728,498.099304 596.202454,497.872681 
	C600.210999,497.598938 601.332947,499.396088 601.309631,503.195862 
	C601.176086,525.025208 601.176392,546.855896 601.275635,568.685486 
	C601.292297,572.351501 600.413574,574.557922 595.811279,574.098083 
z"/>
<path fill="#000000" opacity="1.000000" stroke="none" 
	d="
M817.792725,528.328125 
	C823.024963,543.289062 828.111206,557.882874 833.446716,573.192200 
	C826.354004,574.493713 819.797913,574.293701 813.292603,573.517151 
	C811.313232,573.280884 811.212646,570.735413 810.615845,569.046692 
	C806.434326,557.213562 809.239136,559.653198 796.984863,559.340454 
	C792.989319,559.238464 788.982361,559.464539 784.992920,559.277161 
	C781.778748,559.126160 780.201904,560.460571 779.278259,563.510620 
	C775.736572,575.206726 778.338074,573.986938 764.755005,573.940918 
	C761.655029,573.930420 758.458130,574.643616 755.489014,573.359558 
	C754.485596,571.476685 755.597046,569.988464 756.130554,568.499084 
	C763.986755,546.566345 771.958496,524.674622 779.713257,502.706268 
	C780.953186,499.193695 782.687561,497.548035 786.515076,497.717865 
	C792.001892,497.961334 797.510742,497.915710 803.002930,497.751190 
	C806.205627,497.655243 807.811096,499.005859 808.783569,501.979218 
	C811.627808,510.675873 814.677490,519.305359 817.792725,528.328125 
M800.080994,535.252258 
	C798.289490,529.748413 796.497986,524.244568 794.706482,518.740784 
	C791.416992,525.758789 789.137512,532.674377 786.872681,539.594849 
	C786.332581,541.245117 785.823608,543.286987 788.263916,543.456360 
	C792.789001,543.770447 797.385437,544.177368 801.825928,543.164917 
	C802.182739,540.252686 800.831787,538.208496 800.080994,535.252258 
z"/>
<path fill="#000000" opacity="1.000000" stroke="none" 
	d="
M288.458740,575.927979 
	C269.632141,572.835571 261.692322,563.824646 261.054993,544.124023 
	C260.608063,530.307251 261.013367,516.464355 260.900452,502.634216 
	C260.872162,499.165680 262.296051,497.891418 265.664581,497.945465 
	C283.652435,498.234009 279.994415,495.558014 280.284546,511.583405 
	C280.489655,522.911499 280.230133,534.247498 280.393250,545.576843 
	C280.518829,554.297852 284.559662,559.242188 291.416260,559.634277 
	C299.784760,560.112915 304.517639,555.608276 304.638947,546.473328 
	C304.824799,532.477966 304.918304,518.474548 304.631256,504.483215 
	C304.528931,499.494598 305.946808,497.778046 311.080872,497.849945 
	C324.357727,498.035797 324.355835,497.814697 324.345886,510.942108 
	C324.337799,521.607117 324.354126,532.272156 324.340820,542.937134 
	C324.312958,565.287720 311.467377,577.266907 288.458740,575.927979 
z"/>
<path fill="#000000" opacity="1.000000" stroke="none" 
	d="
M642.999939,574.088623 
	C635.008301,574.085022 627.514099,573.965515 620.026062,574.129395 
	C616.283020,574.211304 614.639465,573.043640 614.664490,569.004089 
	C614.801941,546.862732 614.778259,524.719971 614.682861,502.578156 
	C614.667786,499.068970 616.072937,497.918579 619.435791,497.935822 
	C633.086670,498.005737 646.739136,497.984924 660.389282,497.835693 
	C664.027649,497.795929 665.403015,499.113068 665.333679,502.806213 
	C665.083984,516.100830 666.693665,514.080933 654.451599,514.239929 
	C649.458130,514.304810 644.456360,514.390320 639.470520,514.179382 
	C635.730347,514.021118 633.659424,515.108154 634.249207,519.226929 
	C634.342651,519.879639 634.264526,520.556946 634.264343,521.222900 
	C634.262695,527.659546 634.262573,527.661743 640.960205,527.676086 
	C646.121094,527.687134 651.282898,527.751526 656.442505,527.674988 
	C659.148315,527.634827 660.415283,528.694336 660.333130,531.492554 
	C660.226013,535.138550 660.307007,538.790161 660.307007,543.399292 
	C653.567383,543.399292 647.164917,543.302063 640.768372,543.453674 
	C638.623413,543.504456 635.321411,542.171448 634.659851,545.126892 
	C633.809021,548.927673 633.478149,553.088318 634.979126,556.887573 
	C635.575195,558.396301 637.616516,558.021240 639.080078,558.030640 
	C645.905579,558.074280 652.736328,558.212036 659.555420,558.000916 
	C663.682617,557.873108 665.583252,558.999939 665.431824,563.595154 
	C665.045837,575.306458 666.691345,573.918457 654.987061,574.070618 
	C651.158569,574.120361 647.328979,574.085754 642.999939,574.088623 
z"/>
<path fill="#000000" opacity="1.000000" stroke="none" 
	d="
M245.878632,531.328979 
	C246.087021,545.790710 246.794601,543.112671 234.765518,543.380310 
	C230.938034,543.465515 227.106079,543.456177 223.278214,543.383118 
	C220.548737,543.330994 219.524780,544.533264 219.341095,547.264587 
	C218.614456,558.069580 218.539719,558.061768 229.366760,558.074402 
	C235.194000,558.081238 241.021820,558.153198 246.848251,558.090942 
	C249.952881,558.057861 251.344223,559.249878 251.284317,562.533569 
	C251.039154,575.969666 252.624847,573.945801 240.459229,574.071106 
	C228.972626,574.189514 217.481415,573.936951 205.996750,574.124634 
	C201.827942,574.192688 200.558243,572.664246 200.587326,568.586914 
	C200.742966,546.777222 200.747482,524.965454 200.599609,503.155762 
	C200.572601,499.173279 202.051880,497.916931 205.836212,497.944336 
	C218.988297,498.039642 232.143082,498.028137 245.294022,497.848907 
	C249.236023,497.795197 250.500687,499.298279 250.398788,503.150269 
	C250.050659,516.312439 252.047226,514.054138 239.322998,514.253784 
	C234.163162,514.334717 228.997452,514.348999 223.840561,514.191833 
	C220.736526,514.097290 219.016006,515.065063 219.376419,518.434326 
	C219.411575,518.763123 219.377258,519.099792 219.370209,519.432678 
	C219.195587,527.674622 219.195465,527.675049 227.253159,527.688599 
	C232.081436,527.696777 236.910202,527.745361 241.737808,527.692017 
	C244.018921,527.666809 245.685104,528.239746 245.878632,531.328979 
z"/>
<path fill="#000000" opacity="1.000000" stroke="none" 
	d="
M430.054199,574.423584 
	C420.057281,576.377136 410.784515,574.745544 401.615479,572.074402 
	C399.950562,571.589355 398.665466,570.616699 398.685455,568.554138 
	C398.730164,563.927246 398.699432,559.299622 398.699432,554.763916 
	C401.451050,553.760437 403.346405,555.166687 405.289429,555.815918 
	C411.344971,557.839111 417.487823,558.980835 423.898224,558.689209 
	C427.405060,558.529724 430.707062,558.125610 431.625641,553.977600 
	C432.678009,549.225403 429.591736,547.503235 425.791718,546.260376 
	C420.744720,544.609619 415.589294,543.160339 410.761169,540.997803 
	C400.505371,536.404175 395.599884,527.748352 396.877289,517.456787 
	C398.259735,506.318726 405.464874,498.752930 416.807159,496.835449 
	C425.796600,495.315735 434.649933,496.149445 443.367065,498.833221 
	C446.130341,499.683960 447.600586,501.105133 447.347137,504.169891 
	C447.008759,508.261688 447.887604,512.432495 446.775604,516.428223 
	C444.588898,517.199951 443.043457,515.941223 441.403656,515.283081 
	C435.765289,513.019897 429.956787,511.992035 423.863800,512.229187 
	C420.067383,512.376892 417.261597,513.823059 416.522064,517.609314 
	C415.768616,521.467285 418.048553,524.015808 421.443054,525.316345 
	C425.003082,526.680359 428.722382,527.626648 432.365540,528.776184 
	C446.892090,533.359680 451.755035,539.260498 451.335999,551.776489 
	C450.949646,563.315308 443.651917,571.222900 430.054199,574.423584 
z"/>
<path fill="#000000" opacity="1.000000" stroke="none" 
	d="
M465.471313,559.349365 
	C459.181091,548.560425 458.167969,537.279419 460.698792,525.716980 
	C464.359772,508.991089 478.008911,497.664703 495.157532,496.734100 
	C502.839203,496.317261 510.423798,496.798401 517.802185,499.434387 
	C520.791199,500.502258 522.124512,502.143066 522.038025,505.271423 
	C521.924316,509.383209 522.010071,513.500549 522.010071,518.124817 
	C516.171021,517.276184 511.693359,514.471985 506.628754,513.753296 
	C498.442291,512.591736 490.745453,513.799622 484.820374,519.708374 
	C477.642487,526.866455 478.009888,536.123413 480.257294,545.040100 
	C482.372314,553.431458 489.045471,557.309326 497.192017,558.466064 
	C503.722626,559.393311 510.128326,558.383850 516.295044,555.927551 
	C517.943115,555.271118 519.466125,553.985352 521.936523,554.614319 
	C522.684570,559.218750 522.238708,563.998657 522.192200,568.753540 
	C522.174988,570.512024 520.911133,571.474731 519.490601,572.024536 
	C503.929047,578.047546 477.226929,577.801636 465.471313,559.349365 
z"/>
<path fill="#000000" opacity="1.000000" stroke="none" 
	d="
M388.558289,512.590515 
	C384.615295,513.869385 380.941101,513.309021 377.299408,513.389099 
	C370.542908,513.537598 370.171753,513.829529 370.165039,520.424072 
	C370.148926,536.227051 370.024902,552.031616 370.229675,567.831848 
	C370.283783,572.007935 369.171570,573.653870 364.758331,573.888794 
	C350.688660,574.637512 350.701294,574.809692 350.701874,560.728516 
	C350.702454,546.755310 350.576843,532.780579 350.764130,518.809937 
	C350.819397,514.688049 349.432404,512.925171 345.307587,513.398743 
	C344.158234,513.530701 342.981018,513.419983 341.816589,513.420776 
	C331.471466,513.427429 329.634857,511.023499 331.736847,500.631897 
	C332.225433,498.216583 333.705994,497.825531 335.672516,497.823639 
	C352.140808,497.807770 368.609192,497.816223 385.077362,497.765076 
	C387.901245,497.756287 389.513977,498.707794 389.334045,501.811981 
	C389.132690,505.285614 389.739288,508.794250 388.558289,512.590515 
z"/>
<path fill="#000000" opacity="1.000000" stroke="none" 
	d="
M541.198486,410.340637 
	C532.994690,414.112396 525.124939,417.717438 517.290894,421.398499 
	C514.891235,422.526062 512.657043,422.745850 510.125244,421.623474 
	C465.960144,402.045166 424.697723,377.966766 390.261597,343.526855 
	C357.023773,310.285370 336.964935,270.084412 327.580353,224.181107 
	C319.505493,184.683945 320.532166,144.761703 320.859894,104.830215 
	C320.918091,97.739975 323.490356,93.895752 330.646851,91.304886 
	C363.271149,79.493874 396.559479,70.633720 430.892273,65.458328 
	C461.401123,60.859367 492.056458,58.494690 522.861328,58.972393 
	C583.088318,59.906353 641.484802,70.698135 697.851562,92.305206 
	C704.075806,94.691109 705.277893,98.450333 705.241028,103.921539 
	C705.044739,133.047668 706.226868,162.177155 703.467651,191.281036 
	C700.035706,227.480026 691.268982,261.987274 673.402649,293.901642 
	C658.474182,320.568359 638.384155,342.815857 615.091248,362.363007 
	C592.518066,381.306183 567.721924,396.809479 541.198486,410.340637 
M584.430725,158.298172 
	C581.959656,157.973022 579.496582,157.557770 577.016235,157.337448 
	C561.885071,155.993393 546.736389,155.895309 531.620239,157.365417 
	C515.354675,158.947311 499.401184,161.593246 484.412689,168.908081 
	C467.274750,177.271927 451.174896,187.220749 435.739014,198.324829 
	C434.056061,199.535492 432.414612,200.279877 430.294250,200.411835 
	C415.346313,201.341965 400.462372,202.976212 385.905518,206.558838 
	C371.801483,210.029999 357.945312,214.329788 346.428650,223.788864 
	C344.417175,225.440979 341.585541,227.237732 342.051239,230.057373 
	C342.540741,233.021347 345.933746,233.357468 348.424866,234.097794 
	C350.802124,234.804276 353.273132,235.412262 355.735718,235.578903 
	C370.013733,236.545227 384.296234,237.385086 398.610229,237.769562 
	C406.040222,237.969131 413.089417,239.740021 418.229218,245.982330 
	C424.074036,253.080948 424.003662,253.831223 415.737366,258.138580 
	C411.349731,260.424866 406.938538,262.665863 402.537964,264.927277 
	C406.448547,265.632416 409.914795,265.367401 413.381439,265.107880 
	C426.286591,264.141754 439.289276,260.833923 452.095032,263.987579 
	C460.417633,266.037170 468.285980,266.792023 476.556183,264.678589 
	C479.833344,263.841095 482.036438,262.701202 483.340607,259.143951 
	C486.501007,250.523743 490.605377,242.354309 496.970367,235.487061 
	C506.858673,224.818466 517.532532,222.075348 531.196045,226.982040 
	C532.313538,227.383377 533.358032,227.730392 534.576477,227.474854 
	C552.475220,223.721237 570.664429,221.945114 588.759399,219.520615 
	C615.762573,215.902512 642.772156,212.326828 669.744141,208.487778 
	C674.857117,207.760025 680.191833,207.811432 685.241089,205.822845 
	C672.023804,187.143951 630.991516,164.045822 584.430725,158.298172 
M518.837891,238.640198 
	C511.380157,237.781616 505.524567,240.440445 501.150391,246.546616 
	C497.494781,251.649673 495.134186,257.240967 494.168396,263.454346 
	C493.726929,266.294403 492.423584,269.112701 494.789490,272.987823 
	C500.744080,253.912704 509.460083,239.893463 532.581238,249.879761 
	C530.079346,243.585114 526.771362,240.952332 518.837891,238.640198 
z"/>
<path fill="#000000" opacity="1.000000" stroke="none" 
	d="
M466.657623,184.553192 
	C468.305939,183.677948 469.694519,183.079697 470.948883,182.272720 
	C487.191772,171.822800 505.189697,168.911713 524.191956,168.418747 
	C538.332214,168.051910 552.417358,167.384644 566.525024,168.664230 
	C568.107788,168.807816 569.852539,168.166916 571.172974,169.429474 
	C571.262756,169.698105 571.411499,169.924347 571.354675,170.004135 
	C563.525879,180.989685 554.895325,191.286621 544.436951,199.866104 
	C541.344299,202.403152 537.151001,201.984787 533.357605,201.928696 
	C506.255432,201.527939 479.169037,199.564041 452.044830,201.229065 
	C449.446136,201.388580 446.756744,201.783646 443.068542,200.457962 
	C450.565460,194.025314 458.590973,189.573318 466.657623,184.553192 
z"/>
<path fill="#000000" opacity="1.000000" stroke="none" 
	d="
M591.092102,170.616211 
	C598.489563,168.667221 605.338562,169.754837 612.176941,171.421844 
	C623.760620,174.245636 634.633728,178.675552 644.366821,185.654831 
	C646.505005,187.188034 648.759460,188.679550 650.292908,191.882401 
	C644.746094,196.305481 638.101868,198.279678 631.316101,199.189270 
	C616.319824,201.199417 601.218201,202.133957 586.076904,202.380035 
	C578.429077,202.504318 570.785950,202.908051 563.139771,203.156921 
	C561.196167,203.220184 559.200256,203.470184 557.184570,202.368881 
	C557.469910,199.582413 559.725037,198.393753 561.174011,196.758865 
	C566.580200,190.659012 572.073730,184.634048 577.638733,178.678467 
	C581.225769,174.839706 585.596802,172.158722 591.092102,170.616211 
z"/>
<path fill="#000000" opacity="1.000000" stroke="none" 
	d="
M444.579987,230.367523 
	C459.283691,227.667526 473.619537,225.461288 488.494720,225.302277 
	C483.803925,231.025513 479.668671,237.417099 473.159302,240.523148 
	C458.029846,247.742447 442.311798,250.813980 426.259186,242.921829 
	C424.425842,242.020477 421.698914,241.519470 421.978271,238.738678 
	C422.208557,236.446411 424.584808,235.867706 426.388000,235.154892 
	C432.119934,232.888931 438.096222,231.485703 444.579987,230.367523 
z"/>
</svg>